<svg xmlns="http://www.w3.org/2000/svg" viewBox="0 0 900 900" role="img" aria-labelledby="title desc">
<title id="title">Moonlit sailboat on the water</title><desc id="desc">A detailed sailboat cruising beneath a full moon on calm water, matching the Moonlight Marine navy and gold design.</desc>
<defs>
 <linearGradient id="sky" x1="0" y1="0" x2="0" y2="1"><stop offset="0" stop-color="#03182e"/><stop offset=".58" stop-color="#0b2d4d"/><stop offset="1" stop-color="#071d31"/></linearGradient>
 <linearGradient id="sea" x1="0" y1="0" x2="0" y2="1"><stop stop-color="#123b59"/><stop offset="1" stop-color="#020f20"/></linearGradient>
 <radialGradient id="moonGlow"><stop stop-color="#fff8dc" stop-opacity=".55"/><stop offset=".45" stop-color="#f7e4ad" stop-opacity=".18"/><stop offset="1" stop-color="#f7e4ad" stop-opacity="0"/></radialGradient>
 <linearGradient id="sail" x1="0" y1="0" x2="1" y2="1"><stop stop-color="#fff8e6"/><stop offset=".65" stop-color="#f2dfb3"/><stop offset="1" stop-color="#c9b37f"/></linearGradient>
 <linearGradient id="hull" x1="0" y1="0" x2="0" y2="1"><stop stop-color="#243c4d"/><stop offset="1" stop-color="#020c18"/></linearGradient>
 <filter id="glow"><feGaussianBlur stdDeviation="18"/></filter>
</defs>
<rect width="900" height="900" fill="url(#sky)"/>
<ellipse cx="540" cy="245" rx="270" ry="270" fill="url(#moonGlow)"/>
<circle cx="540" cy="245" r="72" fill="#fff5d7"/>
<g fill="#d8d8cf" opacity=".35"><ellipse cx="515" cy="215" rx="24" ry="10"/><ellipse cx="562" cy="268" rx="18" ry="8"/><ellipse cx="548" cy="205" rx="12" ry="7"/><ellipse cx="522" cy="275" rx="14" ry="6"/></g>
<g fill="#b5c5d2" opacity=".18"><path d="M20 310c95-50 190-48 280 0-88-12-180-10-280 0Z"/><path d="M620 335c90-45 180-40 260 4-83-13-170-14-260-4Z"/></g>
<path d="M0 535c130-20 235 18 350-4 135-25 235-5 330-12 80-6 145 7 220 28v353H0Z" fill="url(#sea)"/>
<g fill="none" stroke-linecap="round"><path d="M30 650c140-22 230 22 370-2 130-22 270 15 470-4" stroke="#cfe0df" stroke-opacity=".18" stroke-width="5"/><path d="M20 705c170-18 250 18 405-2 130-16 280 12 455-6" stroke="#dfe8df" stroke-opacity=".16" stroke-width="4"/><path d="M80 775c130-15 250 20 390-2 150-24 260 14 360-2" stroke="#dfe8df" stroke-opacity=".13" stroke-width="3"/></g>
<path d="M475 510L475 160L700 515Z" fill="url(#sail)" stroke="#fff6dd" stroke-opacity=".45" stroke-width="3"/>
<path d="M465 205L465 510L285 510Z" fill="#e9d6a9" stroke="#fff3d4" stroke-opacity=".35" stroke-width="3"/>
<path d="M466 148V532" stroke="#071725" stroke-width="12" stroke-linecap="round"/>
<path d="M466 154L704 515" stroke="#d7b86c" stroke-opacity=".45" stroke-width="3"/>
<path d="M465 175L292 510" stroke="#d7b86c" stroke-opacity=".38" stroke-width="3"/>
<path d="M274 515c118 30 270 35 450 0l-38 48c-145 30-286 26-385-1Z" fill="url(#hull)" stroke="#071725" stroke-width="8"/>
<path d="M282 516c130 27 287 28 437-2" fill="none" stroke="#e0b65e" stroke-width="7"/>
<path d="M320 492h340" stroke="#0b1d2d" stroke-width="9"/><path d="M365 470h175" stroke="#d7b86c" stroke-opacity=".7" stroke-width="4"/>
<rect x="398" y="448" width="55" height="30" rx="3" fill="#dfeaf0" opacity=".8"/><rect x="466" y="444" width="62" height="34" rx="3" fill="#dfeaf0" opacity=".8"/>
<g fill="#ffc65a"><circle cx="356" cy="500" r="5"/><circle cx="548" cy="501" r="5"/><circle cx="630" cy="501" r="5"/></g>
<path d="M705 510l52 0" stroke="#0b1d2d" stroke-width="10" stroke-linecap="round"/><path d="M474 150l18-32" stroke="#d7b86c" stroke-width="5" stroke-linecap="round"/>
<g opacity=".65" fill="#e5edf0"><circle cx="130" cy="160" r="2"/><circle cx="190" cy="245" r="3"/><circle cx="760" cy="150" r="2"/><circle cx="820" cy="290" r="3"/><circle cx="705" cy="90" r="2"/></g>
<g fill="#f8d37c" opacity=".55" filter="url(#glow)"><ellipse cx="455" cy="585" rx="110" ry="18"/><ellipse cx="565" cy="625" rx="150" ry="12"/></g>
</svg>